<?xml version="1.0" encoding="utf-8"?>
<!-- Generator: Adobe Illustrator 19.0.0, SVG Export Plug-In . SVG Version: 6.00 Build 0)  -->
<svg version="1.1" id="Capa_1" xmlns="http://www.w3.org/2000/svg" xmlns:xlink="http://www.w3.org/1999/xlink" x="0px" y="0px"
	 viewBox="0 0 300 98" style="enable-background:new 0 0 300 98;" xml:space="preserve">
<style type="text/css">
	.st0{fill:#258AD6;}
	.st1{clip-path:url(#SVGID_2_);fill:url(#SVGID_3_);}
	.st2{clip-path:url(#SVGID_5_);fill:url(#SVGID_6_);}
	.st3{clip-path:url(#SVGID_8_);fill:url(#SVGID_9_);}
</style>
<g>
	<path class="st0" d="M97.6,40.1h9.2c4.2,0,7.2,0.6,9.1,1.8c1.9,1.2,2.8,3.1,2.8,5.7c0,1.8-0.4,3.2-1.2,4.3c-0.8,1.1-1.9,1.8-3.3,2
		v0.2c1.9,0.4,3.2,1.2,4.1,2.3c0.8,1.1,1.2,2.7,1.2,4.6c0,2.7-1,4.8-2.9,6.3c-1.9,1.5-4.6,2.3-7.9,2.3H97.6V40.1z M103.9,51.8h3.6
		c1.7,0,2.9-0.3,3.7-0.8c0.8-0.5,1.1-1.4,1.1-2.6c0-1.1-0.4-1.9-1.2-2.4c-0.8-0.5-2.1-0.7-3.9-0.7h-3.3V51.8z M103.9,56.8v7.7h4.1
		c1.7,0,3-0.3,3.8-1c0.8-0.7,1.2-1.7,1.2-3c0-2.5-1.8-3.7-5.3-3.7H103.9z"/>
	<path class="st0" d="M139.3,69.6l-1.2-3.1H138c-1,1.3-2.1,2.2-3.2,2.7c-1.1,0.5-2.5,0.8-4.3,0.8c-2.2,0-3.9-0.6-5.1-1.9
		c-1.2-1.2-1.9-3-1.9-5.3c0-2.4,0.8-4.2,2.5-5.3c1.7-1.1,4.2-1.8,7.6-1.9l3.9-0.1v-1c0-2.3-1.2-3.4-3.5-3.4c-1.8,0-3.9,0.5-6.4,1.6
		l-2-4.2c2.6-1.4,5.5-2,8.7-2c3,0,5.4,0.7,7,2c1.6,1.3,2.4,3.3,2.4,6v15.1H139.3z M137.5,59.2l-2.4,0.1c-1.8,0.1-3.1,0.4-4,1
		c-0.9,0.6-1.3,1.5-1.3,2.7c0,1.7,1,2.6,3,2.6c1.4,0,2.6-0.4,3.4-1.2c0.9-0.8,1.3-1.9,1.3-3.3V59.2z"/>
	<path class="st0" d="M162.6,46.6c0.8,0,1.5,0.1,2.1,0.2l-0.5,5.8c-0.5-0.1-1.1-0.2-1.8-0.2c-2,0-3.5,0.5-4.6,1.5
		c-1.1,1-1.6,2.4-1.6,4.2v11.5H150V47h4.7l0.9,3.8h0.3c0.7-1.3,1.6-2.3,2.8-3.1C159.9,47,161.2,46.6,162.6,46.6"/>
	<path class="st0" d="M168.5,41.2c0-2,1.1-3,3.4-3c2.2,0,3.4,1,3.4,3c0,1-0.3,1.7-0.8,2.2c-0.6,0.5-1.4,0.8-2.5,0.8
		C169.6,44.2,168.5,43.2,168.5,41.2 M174.9,69.6h-6.2V47h6.2V69.6z"/>
	<path class="st0" d="M195.8,69.6l-1.2-3.1h-0.2c-1,1.3-2.1,2.2-3.2,2.7c-1.1,0.5-2.5,0.8-4.3,0.8c-2.2,0-3.9-0.6-5.1-1.9
		c-1.2-1.2-1.9-3-1.9-5.3c0-2.4,0.8-4.2,2.5-5.3c1.7-1.1,4.2-1.8,7.6-1.9l3.9-0.1v-1c0-2.3-1.2-3.4-3.5-3.4c-1.8,0-3.9,0.5-6.4,1.6
		l-2-4.2c2.6-1.4,5.5-2,8.7-2c3,0,5.4,0.7,7,2c1.6,1.3,2.4,3.3,2.4,6v15.1H195.8z M193.9,59.2l-2.4,0.1c-1.8,0.1-3.1,0.4-4,1
		c-0.9,0.6-1.3,1.5-1.3,2.7c0,1.7,1,2.6,3,2.6c1.4,0,2.6-0.4,3.4-1.2c0.9-0.8,1.3-1.9,1.3-3.3V59.2z"/>
	<path class="st0" d="M215.9,65.1c1.1,0,2.4-0.2,3.9-0.7V69c-1.5,0.7-3.4,1-5.7,1c-2.5,0-4.3-0.6-5.4-1.9c-1.1-1.2-1.7-3.1-1.7-5.6
		V51.7h-3v-2.6l3.4-2.1l1.8-4.8h3.9V47h6.3v4.6h-6.3v10.9c0,0.9,0.2,1.5,0.7,1.9C214.5,64.9,215.1,65.1,215.9,65.1"/>
	<path class="st0" d="M237,46.6c0.8,0,1.5,0.1,2.1,0.2l-0.5,5.8c-0.5-0.1-1.1-0.2-1.8-0.2c-2,0-3.5,0.5-4.6,1.5
		c-1.1,1-1.6,2.4-1.6,4.2v11.5h-6.2V47h4.7l0.9,3.8h0.3c0.7-1.3,1.6-2.3,2.8-3.1C234.3,47,235.6,46.6,237,46.6"/>
	<path class="st0" d="M242.9,41.2c0-2,1.1-3,3.4-3c2.2,0,3.4,1,3.4,3c0,1-0.3,1.7-0.8,2.2c-0.6,0.5-1.4,0.8-2.5,0.8
		C244.1,44.2,242.9,43.2,242.9,41.2 M249.4,69.6h-6.2V47h6.2V69.6z"/>
	<path class="st0" d="M265,70c-7,0-10.6-3.9-10.6-11.6c0-3.8,1-6.8,2.9-8.8c1.9-2,4.7-3,8.2-3c2.6,0,5,0.5,7,1.5l-1.8,4.8
		c-1-0.4-1.9-0.7-2.7-1c-0.8-0.3-1.7-0.4-2.5-0.4c-3.2,0-4.8,2.3-4.8,6.8c0,4.4,1.6,6.6,4.8,6.6c1.2,0,2.3-0.2,3.3-0.5
		c1-0.3,2-0.8,3-1.5v5.3c-1,0.6-2,1.1-3,1.3C267.9,69.9,266.6,70,265,70"/>
	<path class="st0" d="M291.5,69.6l-1.2-3.1h-0.2c-1,1.3-2.1,2.2-3.2,2.7c-1.1,0.5-2.5,0.8-4.3,0.8c-2.2,0-3.9-0.6-5.1-1.9
		c-1.2-1.2-1.9-3-1.9-5.3c0-2.4,0.8-4.2,2.5-5.3c1.7-1.1,4.2-1.8,7.6-1.9l3.9-0.1v-1c0-2.3-1.2-3.4-3.5-3.4c-1.8,0-3.9,0.5-6.4,1.6
		l-2-4.2c2.6-1.4,5.5-2,8.7-2c3,0,5.4,0.7,7,2c1.6,1.3,2.4,3.3,2.4,6v15.1H291.5z M289.7,59.2l-2.4,0.1c-1.8,0.1-3.1,0.4-4,1
		c-0.9,0.6-1.3,1.5-1.3,2.7c0,1.7,1,2.6,3,2.6c1.4,0,2.6-0.4,3.4-1.2c0.9-0.8,1.3-1.9,1.3-3.3V59.2z"/>
	<path class="st0" d="M102,80.2c-0.4-0.1-0.7-0.2-1.1-0.2c-0.5,0-1,0.1-1.3,0.3c-0.3,0.2-0.5,0.5-0.5,0.9c0,0.3,0.1,0.6,0.3,0.8
		c0.2,0.2,0.4,0.4,0.7,0.5c0.3,0.1,0.6,0.2,1.1,0.4c0.5,0.2,1,0.3,1.3,0.5c0.3,0.2,0.6,0.4,0.8,0.7c0.2,0.3,0.3,0.7,0.3,1.2
		c0,0.4-0.1,0.8-0.4,1.1c-0.2,0.3-0.6,0.6-1,0.8c-0.4,0.2-0.9,0.3-1.5,0.3c-0.5,0-1.1-0.1-1.6-0.3c-0.5-0.2-1-0.5-1.3-0.9l0.4-0.6
		c0.4,0.3,0.8,0.6,1.2,0.8c0.5,0.2,0.9,0.3,1.4,0.3c0.6,0,1.1-0.1,1.4-0.4c0.4-0.2,0.5-0.6,0.5-1c0-0.3-0.1-0.6-0.3-0.8
		c-0.2-0.2-0.4-0.4-0.7-0.5c-0.3-0.1-0.6-0.2-1.1-0.4c-0.5-0.2-1-0.3-1.3-0.5c-0.3-0.1-0.6-0.4-0.8-0.7c-0.2-0.3-0.3-0.7-0.3-1.1
		c0-0.4,0.1-0.8,0.3-1.1c0.2-0.3,0.5-0.5,0.9-0.7c0.4-0.2,0.9-0.2,1.4-0.2c0.4,0,0.9,0.1,1.3,0.2c0.4,0.1,0.8,0.3,1.1,0.5l-0.3,0.7
		C102.7,80.4,102.4,80.3,102,80.2"/>
	<path class="st0" d="M113.9,79.8c0.6,0.4,1.1,0.8,1.5,1.5c0.4,0.6,0.6,1.3,0.6,2c0,0.7-0.2,1.4-0.6,2c-0.4,0.6-0.9,1.1-1.5,1.5
		c-0.6,0.4-1.3,0.5-2.1,0.5s-1.4-0.2-2.1-0.5c-0.6-0.4-1.1-0.9-1.5-1.5c-0.4-0.6-0.6-1.3-0.6-2c0-0.7,0.2-1.4,0.6-2
		c0.4-0.6,0.9-1.1,1.5-1.5c0.6-0.4,1.3-0.5,2.1-0.5S113.3,79.5,113.9,79.8 M110.2,80.4c-0.5,0.3-0.9,0.7-1.2,1.2
		c-0.3,0.5-0.5,1.1-0.5,1.7c0,0.6,0.1,1.2,0.5,1.7c0.3,0.5,0.7,0.9,1.2,1.2c0.5,0.3,1.1,0.4,1.7,0.4c0.6,0,1.1-0.1,1.6-0.4
		c0.5-0.3,0.9-0.7,1.2-1.2c0.3-0.5,0.5-1.1,0.5-1.7c0-0.6-0.2-1.2-0.5-1.7c-0.3-0.5-0.7-0.9-1.2-1.2c-0.5-0.3-1.1-0.4-1.6-0.4
		C111.2,80,110.7,80.1,110.2,80.4"/>
	<path class="st0" d="M125.7,79.9c0.4,0.4,0.7,0.8,0.7,1.5c0,0.5-0.1,0.9-0.4,1.2c-0.3,0.3-0.6,0.5-1.1,0.6c0.6,0.1,1,0.3,1.4,0.6
		c0.3,0.4,0.5,0.8,0.5,1.4c0,0.7-0.3,1.2-0.8,1.6c-0.5,0.4-1.2,0.6-2.1,0.6h-3.3v-8h3.3C124.7,79.3,125.3,79.5,125.7,79.9
		 M125.1,82.5c0.3-0.2,0.5-0.6,0.5-1.1c0-0.4-0.2-0.8-0.5-1c-0.3-0.2-0.7-0.4-1.3-0.4h-2.5v2.8h2.5
		C124.4,82.9,124.8,82.7,125.1,82.5 M125.4,86.2c0.4-0.3,0.6-0.6,0.6-1.1c0-0.5-0.2-0.8-0.6-1.1c-0.4-0.3-0.9-0.4-1.6-0.4h-2.5v3
		h2.5C124.5,86.6,125,86.5,125.4,86.2"/>
	<path class="st0" d="M136.8,87.3l-1.7-2.6c-0.2,0-0.4,0-0.6,0h-2.2v2.6h-0.8v-7.9h2.9c1,0,1.7,0.2,2.3,0.7c0.5,0.5,0.8,1.1,0.8,1.9
		c0,0.7-0.2,1.2-0.5,1.6c-0.3,0.4-0.8,0.7-1.3,0.9l1.9,2.7H136.8z M134.5,84c0.8,0,1.3-0.2,1.7-0.5c0.4-0.3,0.6-0.8,0.6-1.5
		c0-0.6-0.2-1.1-0.6-1.5c-0.4-0.3-1-0.5-1.7-0.5h-2.2v4H134.5z"/>
	<polygon class="st0" points="142.7,79.4 147.9,79.4 147.9,80.1 143.5,80.1 143.5,82.9 147.5,82.9 147.5,83.6 143.5,83.6 
		143.5,86.6 148.1,86.6 148.1,87.3 142.7,87.3 	"/>
	<path class="st0" d="M158.1,80c0.5,0.5,0.8,1.1,0.8,1.9c0,0.9-0.3,1.5-0.8,2c-0.5,0.5-1.3,0.7-2.3,0.7h-2.1v2.6h-0.8v-7.9h2.9
		C156.8,79.4,157.6,79.6,158.1,80 M157.5,83.5c0.4-0.3,0.6-0.8,0.6-1.5c0-0.6-0.2-1.1-0.6-1.5c-0.4-0.3-1-0.5-1.7-0.5h-2.1v4h2.1
		C156.5,84,157.1,83.9,157.5,83.5"/>
	<polygon class="st0" points="163.4,79.4 168.7,79.4 168.7,80.1 164.2,80.1 164.2,82.9 168.2,82.9 168.2,83.6 164.2,83.6 
		164.2,86.6 168.8,86.6 168.8,87.3 163.4,87.3 	"/>
	<path class="st0" d="M176.9,80.2c-0.4-0.1-0.7-0.2-1.1-0.2c-0.5,0-1,0.1-1.3,0.3c-0.3,0.2-0.5,0.5-0.5,0.9c0,0.3,0.1,0.6,0.3,0.8
		c0.2,0.2,0.4,0.4,0.7,0.5c0.3,0.1,0.6,0.2,1.1,0.4c0.5,0.2,1,0.3,1.3,0.5c0.3,0.2,0.6,0.4,0.8,0.7c0.2,0.3,0.3,0.7,0.3,1.2
		c0,0.4-0.1,0.8-0.4,1.1c-0.2,0.3-0.6,0.6-1,0.8c-0.4,0.2-0.9,0.3-1.5,0.3c-0.5,0-1.1-0.1-1.6-0.3c-0.5-0.2-1-0.5-1.3-0.9l0.4-0.6
		c0.4,0.3,0.8,0.6,1.2,0.8c0.5,0.2,0.9,0.3,1.4,0.3c0.6,0,1.1-0.1,1.4-0.4c0.4-0.2,0.5-0.6,0.5-1c0-0.3-0.1-0.6-0.3-0.8
		c-0.2-0.2-0.4-0.4-0.7-0.5c-0.3-0.1-0.6-0.2-1.1-0.4c-0.5-0.2-1-0.3-1.3-0.5c-0.3-0.1-0.6-0.4-0.8-0.7c-0.2-0.3-0.3-0.7-0.3-1.1
		c0-0.4,0.1-0.8,0.3-1.1c0.2-0.3,0.5-0.5,0.9-0.7c0.4-0.2,0.9-0.2,1.4-0.2c0.4,0,0.9,0.1,1.3,0.2s0.8,0.3,1.1,0.5l-0.3,0.7
		C177.7,80.4,177.3,80.3,176.9,80.2"/>
	<path class="st0" d="M188.8,79.8c0.6,0.4,1.1,0.8,1.5,1.5c0.4,0.6,0.6,1.3,0.6,2c0,0.7-0.2,1.4-0.6,2s-0.9,1.1-1.5,1.5
		c-0.6,0.4-1.3,0.5-2.1,0.5s-1.4-0.2-2.1-0.5c-0.6-0.4-1.1-0.9-1.5-1.5c-0.4-0.6-0.6-1.3-0.6-2c0-0.7,0.2-1.4,0.6-2
		c0.4-0.6,0.9-1.1,1.5-1.5c0.6-0.4,1.3-0.5,2.1-0.5S188.2,79.5,188.8,79.8 M185.1,80.4c-0.5,0.3-0.9,0.7-1.2,1.2
		c-0.3,0.5-0.4,1.1-0.4,1.7c0,0.6,0.1,1.2,0.4,1.7c0.3,0.5,0.7,0.9,1.2,1.2c0.5,0.3,1.1,0.4,1.7,0.4c0.6,0,1.1-0.1,1.6-0.4
		c0.5-0.3,0.9-0.7,1.2-1.2c0.3-0.5,0.5-1.1,0.5-1.7c0-0.6-0.2-1.2-0.5-1.7c-0.3-0.5-0.7-0.9-1.2-1.2c-0.5-0.3-1.1-0.4-1.6-0.4
		C186.2,80,185.6,80.1,185.1,80.4"/>
	<polygon class="st0" points="207.2,79.4 204.2,84.5 204.2,87.3 203.4,87.3 203.4,84.5 200.4,79.4 201.2,79.4 203.8,83.6 
		206.4,79.4 	"/>
	<path class="st0" d="M222.9,79.8c0.6,0.4,1.1,0.8,1.5,1.5c0.4,0.6,0.6,1.3,0.6,2c0,0.7-0.2,1.4-0.6,2s-0.9,1.1-1.5,1.5
		c-0.6,0.4-1.3,0.5-2.1,0.5s-1.4-0.2-2.1-0.5c-0.6-0.4-1.1-0.9-1.5-1.5c-0.4-0.6-0.6-1.3-0.6-2c0-0.7,0.2-1.4,0.6-2
		c0.4-0.6,0.9-1.1,1.5-1.5c0.6-0.4,1.3-0.5,2.1-0.5S222.3,79.5,222.9,79.8 M219.2,80.4c-0.5,0.3-0.9,0.7-1.2,1.2
		c-0.3,0.5-0.5,1.1-0.5,1.7c0,0.6,0.1,1.2,0.5,1.7c0.3,0.5,0.7,0.9,1.2,1.2c0.5,0.3,1.1,0.4,1.7,0.4c0.6,0,1.1-0.1,1.6-0.4
		c0.5-0.3,0.9-0.7,1.2-1.2c0.3-0.5,0.5-1.1,0.5-1.7c0-0.6-0.2-1.2-0.5-1.7c-0.3-0.5-0.7-0.9-1.2-1.2c-0.5-0.3-1.1-0.4-1.6-0.4
		C220.3,80,219.7,80.1,219.2,80.4"/>
	<path class="st0" d="M234.8,79.9c0.4,0.4,0.7,0.8,0.7,1.5c0,0.5-0.1,0.9-0.4,1.2c-0.3,0.3-0.6,0.5-1.1,0.6c0.6,0.1,1,0.3,1.3,0.6
		c0.3,0.4,0.5,0.8,0.5,1.4c0,0.7-0.3,1.2-0.8,1.6c-0.5,0.4-1.2,0.6-2.1,0.6h-3.3v-8h3.3C233.7,79.3,234.3,79.5,234.8,79.9
		 M234.2,82.5c0.3-0.2,0.5-0.6,0.5-1.1c0-0.4-0.2-0.8-0.5-1c-0.3-0.2-0.7-0.4-1.3-0.4h-2.5v2.8h2.5
		C233.4,82.9,233.9,82.7,234.2,82.5 M234.4,86.2c0.4-0.3,0.6-0.6,0.6-1.1c0-0.5-0.2-0.8-0.6-1.1c-0.4-0.3-0.9-0.4-1.6-0.4h-2.5v3
		h2.5C233.6,86.6,234.1,86.5,234.4,86.2"/>
	<polygon class="st0" points="240.6,79.4 245.9,79.4 245.9,80.1 241.4,80.1 241.4,82.9 245.4,82.9 245.4,83.6 241.4,83.6 
		241.4,86.6 246.1,86.6 246.1,87.3 240.6,87.3 	"/>
	<path class="st0" d="M254.2,80.2c-0.4-0.1-0.7-0.2-1.1-0.2c-0.5,0-1,0.1-1.3,0.3c-0.3,0.2-0.5,0.5-0.5,0.9c0,0.3,0.1,0.6,0.3,0.8
		c0.2,0.2,0.4,0.4,0.7,0.5c0.3,0.1,0.6,0.2,1.1,0.4c0.5,0.2,1,0.3,1.3,0.5c0.3,0.2,0.6,0.4,0.8,0.7c0.2,0.3,0.3,0.7,0.3,1.2
		c0,0.4-0.1,0.8-0.4,1.1c-0.2,0.3-0.6,0.6-1,0.8c-0.4,0.2-0.9,0.3-1.5,0.3c-0.5,0-1.1-0.1-1.6-0.3c-0.5-0.2-1-0.5-1.3-0.9l0.4-0.6
		c0.4,0.3,0.8,0.6,1.2,0.8c0.5,0.2,0.9,0.3,1.4,0.3c0.6,0,1.1-0.1,1.4-0.4c0.4-0.2,0.5-0.6,0.5-1c0-0.3-0.1-0.6-0.3-0.8
		c-0.2-0.2-0.4-0.4-0.7-0.5c-0.3-0.1-0.6-0.2-1.1-0.4c-0.5-0.2-1-0.3-1.3-0.5c-0.3-0.1-0.6-0.4-0.8-0.7c-0.2-0.3-0.3-0.7-0.3-1.1
		c0-0.4,0.1-0.8,0.3-1.1c0.2-0.3,0.5-0.5,0.9-0.7c0.4-0.2,0.9-0.2,1.4-0.2c0.4,0,0.9,0.1,1.3,0.2s0.8,0.3,1.1,0.5l-0.3,0.7
		C254.9,80.4,254.6,80.3,254.2,80.2"/>
	<rect x="260.7" y="79.4" class="st0" width="0.8" height="7.9"/>
	<path class="st0" d="M272.1,79.9c0.6,0.3,1.1,0.8,1.5,1.4c0.4,0.6,0.5,1.3,0.5,2c0,0.7-0.2,1.4-0.5,2c-0.4,0.6-0.8,1.1-1.5,1.4
		c-0.6,0.3-1.3,0.5-2.1,0.5h-3.1v-7.9h3.2C270.8,79.4,271.5,79.5,272.1,79.9 M271.7,86.2c0.5-0.3,0.9-0.7,1.2-1.2
		c0.3-0.5,0.4-1,0.4-1.7c0-0.6-0.1-1.2-0.4-1.7c-0.3-0.5-0.7-0.9-1.2-1.2c-0.5-0.3-1-0.4-1.6-0.4h-2.4v6.5h2.4
		C270.6,86.6,271.2,86.5,271.7,86.2"/>
	<path class="st0" d="M284.4,87.3l-0.9-2.1h-4.4l-0.9,2.1h-0.8l3.5-7.9h0.8l3.5,7.9H284.4z M279.4,84.5h3.8l-1.9-4.3L279.4,84.5z"/>
	<path class="st0" d="M294.7,79.9c0.6,0.3,1.1,0.8,1.5,1.4c0.4,0.6,0.5,1.3,0.5,2c0,0.7-0.2,1.4-0.5,2c-0.4,0.6-0.8,1.1-1.5,1.4
		s-1.3,0.5-2.1,0.5h-3.1v-7.9h3.2C293.4,79.4,294.1,79.5,294.7,79.9 M294.3,86.2c0.5-0.3,0.9-0.7,1.2-1.2c0.3-0.5,0.4-1,0.4-1.7
		c0-0.6-0.1-1.2-0.4-1.7c-0.3-0.5-0.7-0.9-1.2-1.2c-0.5-0.3-1-0.4-1.6-0.4h-2.4v6.5h2.4C293.3,86.6,293.8,86.5,294.3,86.2"/>
	<g>
		<defs>
			<path id="SVGID_1_" d="M18,16.7c-1.1,0.5-1.6,1.8-1,2.9c0.4,0.8,1.2,1.3,2,1.3c0.3,0,0.6-0.1,0.9-0.2c6-2.8,12.4-4.2,19.1-4.2
				c6.6,0,13,1.4,19,4.2c1.1,0.5,2.4,0,2.9-1.1c0.5-1.1,0-2.4-1.1-2.9C53.2,13.5,46.2,12,39,12C31.7,12,24.6,13.6,18,16.7"/>
		</defs>
		<clipPath id="SVGID_2_">
			<use xlink:href="#SVGID_1_"  style="overflow:visible;"/>
		</clipPath>
		
			<linearGradient id="SVGID_3_" gradientUnits="userSpaceOnUse" x1="-440" y1="285.9953" x2="-439" y2="285.9953" gradientTransform="matrix(-221.2249 -221.2249 -221.2249 221.2249 -33923.2305 -160484.1719)">
			<stop  offset="0" style="stop-color:#2CBEE1"/>
			<stop  offset="0.2302" style="stop-color:#28A0DB"/>
			<stop  offset="0.728" style="stop-color:#1E55CB"/>
			<stop  offset="0.9879" style="stop-color:#192BC2"/>
			<stop  offset="1" style="stop-color:#192BC2"/>
		</linearGradient>
		<polygon class="st1" points="38.9,43.5 12,16.5 38.9,-10.4 65.9,16.5 		"/>
	</g>
	<g>
		<defs>
			<path id="SVGID_4_" d="M9.4,8.7C8.3,9.3,7.8,10.8,8.5,12c0.7,1.2,2.2,1.6,3.3,0.9C20,8.3,29.3,5.8,38.8,5.8
				c9.7,0,19.2,2.6,27.5,7.4c0.4,0.2,0.8,0.3,1.2,0.3c0.8,0,1.7-0.4,2.1-1.2c0.7-1.2,0.3-2.7-0.9-3.4c-9.1-5.3-19.4-8.1-30-8.1
				C28.5,0.9,18.3,3.6,9.4,8.7"/>
		</defs>
		<clipPath id="SVGID_5_">
			<use xlink:href="#SVGID_4_"  style="overflow:visible;"/>
		</clipPath>
		
			<linearGradient id="SVGID_6_" gradientUnits="userSpaceOnUse" x1="-440" y1="285.9916" x2="-439" y2="285.9916" gradientTransform="matrix(-221.084 -221.084 -221.084 221.084 -33893.3516 -160381.5)">
			<stop  offset="0" style="stop-color:#2CBEE1"/>
			<stop  offset="0.2302" style="stop-color:#28A0DB"/>
			<stop  offset="0.728" style="stop-color:#1E55CB"/>
			<stop  offset="0.9879" style="stop-color:#192BC2"/>
			<stop  offset="1" style="stop-color:#192BC2"/>
		</linearGradient>
		<polygon class="st2" points="39.1,44.9 1.5,7.3 39.1,-30.3 76.7,7.3 		"/>
	</g>
	<g>
		<defs>
			<path id="SVGID_7_" d="M53.1,79.6c10.2-7.6,14-16,12-26.3c-1.9-9.6-9.6-10.2-13.8-10.5c-0.9-0.1-1.6-0.1-2.1-0.2
				c-2.1-0.5-3.4-1.9-3.8-4.2c0-0.3-0.1-0.6-0.1-0.9c0-0.1,0-0.2,0-0.3c0,0,0-0.1,0-0.1L45,35.5c-0.1-3.3,0.5-6.2,0.9-7.8
				C61,30.9,72.4,44.3,72.4,60.3c0,18.3-14.9,33.3-33.3,33.3c-10,0-19-4.5-25.1-11.5c0.2-1.5,0.6-4.8,1.3-7.1
				c0.1-0.2,0.2-0.4,0.2-0.7c0,0,0-0.1,0-0.2c0.2-0.5,0.4-0.9,0.6-1.2c0.6-0.7,1.7-1.4,4-1.3c2,0.1,2.5,1.1,3.4,3.3
				c0.9,2.2,2,4.9,5.6,6.6c2.9,1.4,6.4,2.8,10.3,3h0c0.3,0,0.6,0,0.8,0C44.6,84.4,48.8,82.8,53.1,79.6 M5.8,60.3
				c0-17.9,14.3-32.6,32.1-33.2c-0.7,2.9-0.3,8-0.3,8c0.1,2.4,0.5,7.4,2.5,11.5c1.5,3,4.2,10.5-2.3,15c-3,2.1-5.5,3-8.1,2.8
				c-1.8-0.1-3.6-0.6-5.9-1.4c-1.1-0.4-2.2-0.6-3.4-0.6c-4.7-0.2-8.9,2-10.5,5.5c-0.3,0.7-0.6,1.3-0.8,1.8l0,0
				c-0.5,1.3-0.8,2.3-0.9,3C6.7,68.9,5.8,64.7,5.8,60.3 M2,60.3c0,20.5,16.7,37.1,37.1,37.1c20.5,0,37.1-16.7,37.1-37.1
				S59.6,23.1,39.1,23.1C18.6,23.1,2,39.8,2,60.3"/>
		</defs>
		<clipPath id="SVGID_8_">
			<use xlink:href="#SVGID_7_"  style="overflow:visible;"/>
		</clipPath>
		
			<linearGradient id="SVGID_9_" gradientUnits="userSpaceOnUse" x1="-440" y1="286" x2="-439" y2="286" gradientTransform="matrix(-137.0742 -137.0742 -137.0742 137.0742 -21031.4434 -99416.6875)">
			<stop  offset="0" style="stop-color:#2CBEE1"/>
			<stop  offset="0.2302" style="stop-color:#28A0DB"/>
			<stop  offset="0.728" style="stop-color:#1E55CB"/>
			<stop  offset="0.9879" style="stop-color:#192BC2"/>
			<stop  offset="1" style="stop-color:#192BC2"/>
		</linearGradient>
		<polygon class="st3" points="39.1,134.6 -35.2,60.3 39.1,-14 113.4,60.3 		"/>
	</g>
	<path class="st0" d="M187.8,44.1v-0.5c2.1-2.4,3.5-4.2,4.3-5.5h6.2v0.4c-0.6,0.6-1.7,1.6-3.2,2.8c-1.5,1.2-2.7,2.2-3.6,2.8H187.8z"
		/>
</g>
</svg>
